<svg width="532" height="200" viewBox="0 0 532 200" fill="none" xmlns="http://www.w3.org/2000/svg">
<path d="M11.1999 178.345C10.9899 178.055 10.7049 177.82 10.3449 177.64C9.98488 177.45 9.57988 177.355 9.12988 177.355C8.88988 177.355 8.64488 177.39 8.39488 177.46C8.15488 177.52 7.93488 177.625 7.73488 177.775C7.53488 177.915 7.36988 178.095 7.23988 178.315C7.11988 178.525 7.05988 178.78 7.05988 179.08C7.05988 179.37 7.11488 179.615 7.22488 179.815C7.34488 180.005 7.49988 180.17 7.68988 180.31C7.88988 180.44 8.11988 180.555 8.37988 180.655C8.64988 180.745 8.93488 180.84 9.23488 180.94C9.59488 181.05 9.95988 181.175 10.3299 181.315C10.6999 181.455 11.0349 181.64 11.3349 181.87C11.6349 182.1 11.8799 182.39 12.0699 182.74C12.2599 183.08 12.3549 183.515 12.3549 184.045C12.3549 184.595 12.2499 185.075 12.0399 185.485C11.8399 185.885 11.5699 186.22 11.2299 186.49C10.8899 186.75 10.4949 186.945 10.0449 187.075C9.60488 187.205 9.14988 187.27 8.67988 187.27C8.00988 187.27 7.35988 187.14 6.72988 186.88C6.10988 186.62 5.59488 186.235 5.18488 185.725L6.33988 184.75C6.58988 185.12 6.92488 185.42 7.34488 185.65C7.76488 185.88 8.21988 185.995 8.70988 185.995C8.95988 185.995 9.20988 185.96 9.45988 185.89C9.70988 185.82 9.93488 185.71 10.1349 185.56C10.3449 185.41 10.5149 185.225 10.6449 185.005C10.7749 184.775 10.8399 184.5 10.8399 184.18C10.8399 183.86 10.7699 183.595 10.6299 183.385C10.4999 183.165 10.3199 182.98 10.0899 182.83C9.85988 182.68 9.58988 182.555 9.27988 182.455C8.97988 182.345 8.65988 182.235 8.31988 182.125C7.97988 182.025 7.64488 181.905 7.31488 181.765C6.98488 181.615 6.68988 181.43 6.42988 181.21C6.16988 180.98 5.95988 180.7 5.79988 180.37C5.63988 180.04 5.55988 179.63 5.55988 179.14C5.55988 178.61 5.66488 178.155 5.87488 177.775C6.09488 177.395 6.37488 177.08 6.71488 176.83C7.06488 176.58 7.45488 176.4 7.88488 176.29C8.32488 176.17 8.76488 176.11 9.20488 176.11C9.82488 176.11 10.4049 176.22 10.9449 176.44C11.4849 176.66 11.9199 176.955 12.2499 177.325L11.1999 178.345ZM16.6949 187H15.2099V176.38H16.6949V187ZM29.1372 185.35C28.7172 185.92 28.1722 186.385 27.5022 186.745C26.8322 187.095 26.0272 187.27 25.0872 187.27C24.2772 187.27 23.5272 187.135 22.8372 186.865C22.1572 186.585 21.5672 186.2 21.0672 185.71C20.5772 185.21 20.1922 184.62 19.9122 183.94C19.6322 183.25 19.4922 182.495 19.4922 181.675C19.4922 180.845 19.6322 180.09 19.9122 179.41C20.2022 178.72 20.5972 178.135 21.0972 177.655C21.6072 177.165 22.2072 176.785 22.8972 176.515C23.5872 176.245 24.3372 176.11 25.1472 176.11C25.5072 176.11 25.8722 176.145 26.2422 176.215C26.6122 176.285 26.9672 176.39 27.3072 176.53C27.6472 176.67 27.9572 176.845 28.2372 177.055C28.5172 177.255 28.7572 177.49 28.9572 177.76L27.7872 178.66C27.5272 178.3 27.1572 178.005 26.6772 177.775C26.2072 177.535 25.6972 177.415 25.1472 177.415C24.5272 177.415 23.9672 177.53 23.4672 177.76C22.9772 177.98 22.5572 178.285 22.2072 178.675C21.8572 179.065 21.5872 179.52 21.3972 180.04C21.2072 180.55 21.1122 181.095 21.1122 181.675C21.1122 182.275 21.2022 182.835 21.3822 183.355C21.5722 183.875 21.8372 184.33 22.1772 184.72C22.5272 185.1 22.9472 185.4 23.4372 185.62C23.9372 185.84 24.4922 185.95 25.1022 185.95C25.7022 185.95 26.2472 185.83 26.7372 185.59C27.2272 185.35 27.6322 185 27.9522 184.54L29.1372 185.35ZM32.8873 181.06H32.9173L37.6573 176.38H39.7123L34.5523 181.24L40.0273 187H37.8973L32.9173 181.51H32.8873V187H31.4023V176.38H32.8873V181.06Z" fill="#FF103B"/>
<path d="M4.68973 20.84H4.71973L7.20973 12.38H8.84473L11.3197 20.84H11.3497L13.6897 12.38H15.2647L12.1447 23H10.5997L8.01973 14.465H7.98973L5.40973 23H3.86473L0.744727 12.38H2.34973L4.68973 20.84ZM18.9439 21.68H24.4939V23H17.4589V12.38H24.2689V13.685H18.9439V16.865H23.9539V18.14H18.9439V21.68ZM28.7027 21.68H33.4427V23H27.2177V12.38H28.7027V21.68ZM37.1139 21.68H41.8539V23H35.6289V12.38H37.1139V21.68Z" fill="#62AC18"/>
<rect x="63" y="164.286" width="20" height="35.7143" rx="5" fill="#FF103B"/>
<rect x="63" y="123.214" width="40" height="35.7143" rx="5" fill="#FF103B"/>
<rect x="63" y="82.1428" width="60" height="35.7143" rx="5" fill="#FD7E56"/>
<rect x="63" y="41.0714" width="50" height="35.7143" rx="5" fill="#62AC18"/>
<rect x="63" width="40" height="35.7143" rx="5" fill="#62AC18"/>
<rect x="163" y="164.286" width="20" height="35.7143" rx="5" fill="#FF103B"/>
<rect x="163" y="123.214" width="40" height="35.7143" rx="5" fill="#FF103B"/>
<rect x="163" y="82.1428" width="50" height="35.7143" rx="5" fill="#FD7E56"/>
<rect x="163" y="41.0714" width="60" height="35.7143" rx="5" fill="#62AC18"/>
<rect x="163" width="40" height="35.7143" rx="5" fill="#62AC18"/>
<rect x="258" y="164.286" width="10" height="35.7143" rx="5" fill="#FF103B"/>
<rect x="258" y="123.214" width="30" height="35.7143" rx="5" fill="#FF103B"/>
<rect x="258" y="82.1428" width="40" height="35.7143" rx="5" fill="#FD7E56"/>
<rect x="258" y="41.0714" width="60" height="35.7143" rx="5" fill="#62AC18"/>
<rect x="258" width="70" height="35.7143" rx="5" fill="#62AC18"/>
<rect x="359" y="164.286" width="10" height="35.7143" rx="5" fill="#FF103B"/>
<rect x="359" y="123.214" width="34" height="35.7143" rx="5" fill="#FF103B"/>
<rect x="359" y="82.1428" width="30" height="35.7143" rx="5" fill="#FD7E56"/>
<rect x="359" y="41.0714" width="70" height="35.7143" rx="5" fill="#62AC18"/>
<rect x="359" width="60" height="35.7143" rx="5" fill="#62AC18"/>
<rect x="452" y="164.286" width="10" height="35.7143" rx="5" fill="#FF103B"/>
<rect x="452" y="123.214" width="40" height="35.7143" rx="5" fill="#FF103B"/>
<rect x="452" y="82.1428" width="20" height="35.7143" rx="5" fill="#FD7E56"/>
<rect x="452" y="41.0714" width="80" height="35.7143" rx="5" fill="#62AC18"/>
<rect x="452" width="50" height="35.7143" rx="5" fill="#62AC18"/>
</svg>
