<svg width="84" height="84" viewBox="0 0 84 84" fill="none" xmlns="http://www.w3.org/2000/svg">
<path fill-rule="evenodd" clip-rule="evenodd" d="M35.8033 11.7049V0H47.5082V11.7049H48.1967L60.5902 11.7049L72.2951 11.7049V23.4098V35.8033V36.4918H84V48.1967L72.2951 48.1967V60.5902V72.2951H60.5902H48.1967H47.5082V84H35.8033L35.8033 72.2951H23.4098H11.7049V60.5902V48.1967V47.5082H0V35.8033L11.7049 35.8033V23.4098L11.7049 11.7049L23.4098 11.7049L35.8033 11.7049ZM23.4098 23.4098V35.8033L35.8033 35.8033V48.1967H23.4098V60.5902H35.8033V48.1967H48.1967V60.5902H60.5902V48.1967H48.1967V35.8033H60.5902V23.4098L48.1967 23.4098V35.8033H35.8033L35.8033 23.4098L23.4098 23.4098Z" fill="#1F28CF"/>
</svg>
