<svg width="130" height="71" viewBox="0 0 130 71" fill="none" xmlns="http://www.w3.org/2000/svg">
<path d="M15.6 30V21.12H7.32V30H2.19V8.76H7.32V16.8H15.6V8.76H20.73V30H15.6ZM39.3183 30L37.6683 25.83H29.4483L27.8883 30H22.3083L31.2183 8.76H36.1983L45.0183 30H39.3183ZM33.6183 14.43L30.9183 21.72H36.2583L33.6183 14.43ZM57.962 30L53.372 21.57H51.632V30H46.592V8.76H54.692C55.712 8.76 56.702 8.87 57.662 9.09C58.642 9.29 59.512 9.64 60.272 10.14C61.052 10.64 61.672 11.3 62.132 12.12C62.592 12.94 62.822 13.96 62.822 15.18C62.822 16.62 62.432 17.83 61.652 18.81C60.872 19.79 59.792 20.49 58.412 20.91L63.962 30H57.962ZM57.752 15.27C57.752 14.77 57.642 14.37 57.422 14.07C57.222 13.75 56.952 13.51 56.612 13.35C56.292 13.17 55.922 13.05 55.502 12.99C55.102 12.93 54.712 12.9 54.332 12.9H51.602V17.85H54.032C54.452 17.85 54.882 17.82 55.322 17.76C55.762 17.68 56.162 17.55 56.522 17.37C56.882 17.19 57.172 16.93 57.392 16.59C57.632 16.25 57.752 15.81 57.752 15.27ZM82.8627 23.82C82.8627 24.98 82.6327 25.96 82.1727 26.76C81.7127 27.54 81.1027 28.17 80.3427 28.65C79.5827 29.13 78.7127 29.48 77.7327 29.7C76.7727 29.9 75.7827 30 74.7627 30H66.3027V8.76H74.7627C75.5827 8.76 76.4227 8.85 77.2827 9.03C78.1427 9.19 78.9227 9.48 79.6227 9.9C80.3227 10.3 80.8927 10.85 81.3327 11.55C81.7727 12.25 81.9927 13.14 81.9927 14.22C81.9927 15.4 81.6727 16.38 81.0327 17.16C80.3927 17.92 79.5527 18.47 78.5127 18.81V18.87C79.1127 18.97 79.6727 19.16 80.1927 19.44C80.7327 19.7 81.1927 20.04 81.5727 20.46C81.9727 20.88 82.2827 21.37 82.5027 21.93C82.7427 22.49 82.8627 23.12 82.8627 23.82ZM77.0427 14.91C77.0427 14.19 76.7627 13.67 76.2027 13.35C75.6627 13.01 74.8527 12.84 73.7727 12.84H71.2527V17.22H74.0127C74.9727 17.22 75.7127 17.03 76.2327 16.65C76.7727 16.25 77.0427 15.67 77.0427 14.91ZM77.7327 23.34C77.7327 22.46 77.4027 21.85 76.7427 21.51C76.0827 21.17 75.2027 21 74.1027 21H71.2527V25.86H74.1327C74.5327 25.86 74.9427 25.83 75.3627 25.77C75.8027 25.69 76.1927 25.56 76.5327 25.38C76.8927 25.2 77.1827 24.95 77.4027 24.63C77.6227 24.29 77.7327 23.86 77.7327 23.34ZM108.212 19.29C108.212 20.97 107.922 22.51 107.342 23.91C106.762 25.29 105.952 26.48 104.912 27.48C103.892 28.46 102.672 29.22 101.252 29.76C99.8321 30.3 98.2921 30.57 96.6321 30.57C94.9721 30.57 93.4321 30.3 92.0121 29.76C90.6121 29.22 89.3921 28.46 88.3521 27.48C87.3321 26.48 86.5321 25.29 85.9521 23.91C85.3721 22.51 85.0821 20.97 85.0821 19.29C85.0821 17.59 85.3721 16.06 85.9521 14.7C86.5321 13.32 87.3321 12.15 88.3521 11.19C89.3921 10.23 90.6121 9.49 92.0121 8.97C93.4321 8.45 94.9721 8.19 96.6321 8.19C98.2921 8.19 99.8321 8.45 101.252 8.97C102.672 9.49 103.892 10.23 104.912 11.19C105.952 12.15 106.762 13.32 107.342 14.7C107.922 16.06 108.212 17.59 108.212 19.29ZM102.722 19.29C102.722 18.37 102.572 17.51 102.272 16.71C101.972 15.91 101.552 15.23 101.012 14.67C100.492 14.09 99.8521 13.64 99.0921 13.32C98.3521 12.98 97.5321 12.81 96.6321 12.81C95.7321 12.81 94.9121 12.98 94.1721 13.32C93.4321 13.64 92.7921 14.09 92.2521 14.67C91.7121 15.23 91.2921 15.91 90.9921 16.71C90.7121 17.51 90.5721 18.37 90.5721 19.29C90.5721 20.25 90.7221 21.14 91.0221 21.96C91.3221 22.76 91.7321 23.45 92.2521 24.03C92.7921 24.61 93.4321 25.07 94.1721 25.41C94.9121 25.73 95.7321 25.89 96.6321 25.89C97.5321 25.89 98.3521 25.73 99.0921 25.41C99.8321 25.07 100.472 24.61 101.012 24.03C101.552 23.45 101.972 22.76 102.272 21.96C102.572 21.14 102.722 20.25 102.722 19.29ZM122.778 30L118.188 21.57H116.448V30H111.408V8.76H119.508C120.528 8.76 121.518 8.87 122.478 9.09C123.458 9.29 124.328 9.64 125.088 10.14C125.868 10.64 126.488 11.3 126.948 12.12C127.408 12.94 127.638 13.96 127.638 15.18C127.638 16.62 127.248 17.83 126.468 18.81C125.688 19.79 124.608 20.49 123.228 20.91L128.778 30H122.778ZM122.568 15.27C122.568 14.77 122.458 14.37 122.238 14.07C122.038 13.75 121.768 13.51 121.428 13.35C121.108 13.17 120.738 13.05 120.318 12.99C119.918 12.93 119.528 12.9 119.148 12.9H116.418V17.85H118.848C119.268 17.85 119.698 17.82 120.138 17.76C120.578 17.68 120.978 17.55 121.338 17.37C121.698 17.19 121.988 16.93 122.208 16.59C122.448 16.25 122.568 15.81 122.568 15.27Z" fill="#003880" fill-opacity="0.15"/>
<path d="M2.82 38.76H4.98V47.97H16.56V38.76H18.72V60H16.56V49.95H4.98V60H2.82V38.76ZM26.3314 58.08H37.7014V60H24.1714V38.76H37.3414V40.68H26.3314V48H36.6214V49.89H26.3314V58.08ZM41.5935 60H39.2235L48.4035 38.76H50.5035L59.6235 60H57.2235L54.8835 54.42H43.9035L41.5935 60ZM44.7135 52.44H54.0735L49.3935 41.16L44.7135 52.44ZM64.7275 58.08H74.6275V60H62.5675V38.76H64.7275V58.08ZM81.6176 60H79.4576V40.68H72.3476V38.76H88.7276V40.68H81.6176V60ZM91.7351 38.76H93.8951V47.97H105.475V38.76H107.635V60H105.475V49.95H93.8951V60H91.7351V38.76Z" fill="#003880" fill-opacity="0.15"/>
</svg>
